<svg width="24" height="24" viewBox="0 0 24 24" fill="none" xmlns="http://www.w3.org/2000/svg">
<path d="M18 3.99999C18 3.4477 17.5523 2.99999 17 3C16.4477 3.00001 16 3.44773 16 4.00001L16.0002 17.586L13.7071 15.2929C13.3166 14.9024 12.6834 14.9024 12.2929 15.2929C11.9024 15.6834 11.9024 16.3166 12.2929 16.7071L16.2929 20.7071C16.4163 20.8305 16.5639 20.9149 16.7204 20.9603C16.7777 20.977 16.837 20.9886 16.898 20.9948C16.9316 20.9983 16.9657 21 17.0002 21C17.018 21 17.0357 20.9995 17.0533 20.9986C17.3143 20.985 17.5488 20.8712 17.7192 20.695L21.7071 16.7071C22.0976 16.3166 22.0976 15.6834 21.7071 15.2929C21.3166 14.9024 20.6834 14.9024 20.2929 15.2929L18.0002 17.5856L18 3.99999Z" fill="black"/>
<path d="M8 20L8 6.41423L10.2929 8.70712C10.6834 9.09764 11.3166 9.09764 11.7071 8.70712C12.0976 8.3166 12.0976 7.68343 11.7071 7.29291L7.70711 3.29291C7.31658 2.90238 6.68342 2.90238 6.29289 3.29291L2.29289 7.29291C1.90237 7.68343 1.90237 8.3166 2.29289 8.70712C2.68342 9.09764 3.31658 9.09764 3.70711 8.70712L6 6.41423L6 20C6 20.5523 6.44772 21 7 21C7.55229 21 8 20.5523 8 20Z" fill="black"/>
</svg>
