<svg width="24" height="24" viewBox="0 0 24 24" fill="none" xmlns="http://www.w3.org/2000/svg">
<path fill-rule="evenodd" clip-rule="evenodd" d="M12 0C7.90393 0 4.58337 3.32056 4.58337 7.41667V8.33334C4.58337 10.5339 4.28458 12.4847 3.82923 13.8507C3.59982 14.539 3.34869 15.0238 3.11839 15.316C2.94788 15.5324 2.84614 15.5761 2.8228 15.5834C2.27538 15.5891 1.83337 16.0346 1.83337 16.5833V16.7917C1.83337 17.344 2.28109 17.7917 2.83337 17.7917H21.1667C21.719 17.7917 22.1667 17.344 22.1667 16.7917V16.5833C22.1667 16.0346 21.7247 15.5891 21.1773 15.5834C21.1539 15.5761 21.0522 15.5324 20.8817 15.316C20.6514 15.0238 20.4003 14.539 20.1708 13.8507C19.7155 12.4847 19.4167 10.5339 19.4167 8.33334V7.41667C19.4167 3.32056 16.0962 0 12 0ZM2.82032 15.5841L2.81761 15.5847L2.81874 15.5845L2.82032 15.5841ZM6.58337 7.41667C6.58337 4.42512 9.0085 2 12 2C14.9916 2 17.4167 4.42512 17.4167 7.41667V8.33334C17.4167 10.6891 17.7335 12.8633 18.2735 14.4832C18.4303 14.9538 18.6122 15.3966 18.8218 15.7917H5.17828C5.38783 15.3966 5.56973 14.9538 5.7266 14.4832C6.26656 12.8633 6.58337 10.6891 6.58337 8.33334V7.41667Z" fill="black"/>
<path d="M10.054 19.9054C9.72565 19.4613 9.09947 19.3675 8.6554 19.6959C8.21133 20.0242 8.11752 20.6504 8.44588 21.0945C9.27799 22.2198 10.535 22.9999 11.9999 22.9999C13.4648 22.9999 14.7219 22.2198 15.554 21.0945C15.8824 20.6504 15.7886 20.0242 15.3445 19.6959C14.9004 19.3675 14.2742 19.4613 13.9459 19.9054C13.4146 20.6239 12.7123 20.9999 11.9999 20.9999C11.2876 20.9999 10.5853 20.6239 10.054 19.9054Z" fill="black"/>
</svg>
