<svg width="24" height="24" viewBox="0 0 24 24" fill="none" xmlns="http://www.w3.org/2000/svg">
<path fill-rule="evenodd" clip-rule="evenodd" d="M12 3C12.3333 3 12.6448 3.16613 12.8305 3.443L16.6105 9.07917L21.2522 3.85213C21.5514 3.51525 22.0389 3.42002 22.4428 3.61953C22.8467 3.81904 23.0674 4.26404 22.9817 4.70634L20.2955 18.5706C20.0222 19.9812 18.7871 21 17.3503 21H6.64964C5.21281 21 3.97772 19.9812 3.70442 18.5706L1.01821 4.70634C0.932513 4.26404 1.15316 3.81904 1.55711 3.61953C1.96105 3.42002 2.44853 3.51525 2.74768 3.85213L7.38941 9.07917L11.1694 3.443C11.3551 3.16613 11.6666 3 12 3ZM12 5.79533L8.33046 11.2667C8.15807 11.5237 7.87638 11.6865 7.56759 11.7074C7.25881 11.7283 6.95773 11.6051 6.75222 11.3737L3.67603 7.90958L5.6679 18.1902C5.759 18.6604 6.1707 19 6.64964 19H17.3503C17.8292 19 18.2409 18.6604 18.332 18.1902L20.3239 7.90958L17.2477 11.3737C17.0422 11.6051 16.7411 11.7283 16.4323 11.7074C16.1235 11.6865 15.8418 11.5237 15.6694 11.2667L12 5.79533Z" fill="black"/>
</svg>
