<svg width="24" height="24" viewBox="0 0 24 24" fill="none" xmlns="http://www.w3.org/2000/svg">
<path d="M18.7071 7.79289C19.0976 8.18342 19.0976 8.81658 18.7071 9.20711L15.9142 12L18.7071 14.7929C19.0976 15.1834 19.0976 15.8166 18.7071 16.2071C18.3166 16.5976 17.6834 16.5976 17.2929 16.2071L14.5 13.4142L11.7071 16.2071C11.3166 16.5976 10.6834 16.5976 10.2929 16.2071C9.90237 15.8166 9.90237 15.1834 10.2929 14.7929L13.0858 12L10.2929 9.20711C9.90237 8.81658 9.90237 8.18342 10.2929 7.79289C10.6834 7.40237 11.3166 7.40237 11.7071 7.79289L14.5 10.5858L17.2929 7.79289C17.6834 7.40237 18.3166 7.40237 18.7071 7.79289Z" fill="black"/>
<path fill-rule="evenodd" clip-rule="evenodd" d="M6.30983 3.54424C7.06765 2.56989 8.23287 2 9.46724 2H21C21.8362 2 22.6106 2.37473 23.1616 2.99465C23.7092 3.61073 24 4.42358 24 5.25V18.75C24 19.5764 23.7092 20.3893 23.1616 21.0054C22.6106 21.6253 21.8362 22 21 22H9.46724C8.23287 22 7.06765 21.4301 6.30983 20.4558L0.688141 13.2279C0.126415 12.5057 0.126413 11.4943 0.688141 10.7721L6.30983 3.54424ZM9.46724 4C8.85005 4 8.26744 4.28495 7.88853 4.77212L2.26685 12L7.88853 19.2279C8.26744 19.7151 8.85005 20 9.46724 20H21C21.2246 20 21.4677 19.9006 21.6668 19.6766C21.8693 19.4488 22 19.1171 22 18.75V5.25C22 4.88294 21.8693 4.5512 21.6668 4.32337C21.4677 4.09938 21.2246 4 21 4H9.46724Z" fill="black"/>
</svg>
