<svg width="24" height="24" viewBox="0 0 24 24" fill="none" xmlns="http://www.w3.org/2000/svg">
<g clip-path="url(#clip0_1383_124889)">
<path fill-rule="evenodd" clip-rule="evenodd" d="M23.7071 0.292893C24.0976 0.683417 24.0976 1.31658 23.7071 1.70711L18.989 6.4252C18.9805 6.43399 18.9719 6.4426 18.9632 6.45102L6.42853 18.9857C6.42006 18.9945 6.41146 19.0031 6.40273 19.0115L1.70711 23.7071C1.31658 24.0976 0.683417 24.0976 0.292893 23.7071C-0.0976311 23.3166 -0.0976311 22.6834 0.292893 22.2929L4.23434 18.3514C2.9164 17.1406 1.94176 15.7855 1.2732 14.6799C0.867646 14.0092 0.5691 13.421 0.370612 12.9971C0.271255 12.785 0.196646 12.6133 0.145961 12.4922C0.12061 12.4317 0.101217 12.3838 0.0876805 12.3497L0.0717465 12.3091L0.067044 12.2969L0.0655043 12.2928L0.0649367 12.2913C0.0649367 12.2913 0.0645038 12.2902 1.00008 11.9371L0.074198 11.5593L0.0746014 11.5583L0.0756485 11.5557L0.0787059 11.5483L0.0886819 11.5245C0.0970512 11.5046 0.108867 11.4769 0.124153 11.4419C0.154718 11.372 0.199199 11.2727 0.257786 11.1484C0.374887 10.8998 0.548788 10.55 0.781098 10.1325C1.24449 9.29981 1.94679 8.18638 2.90303 7.0685C4.80651 4.84327 7.80941 2.5 12.0001 2.5C14.4526 2.5 16.5053 3.30553 18.165 4.42081L22.2929 0.292893C22.6834 -0.0976311 23.3166 -0.0976311 23.7071 0.292893ZM9.67199 12.9138L12.9138 9.67199C12.6308 9.56087 12.3227 9.5 12 9.5C10.6193 9.5 9.5 10.6193 9.5 12C9.5 12.3227 9.56087 12.6308 9.67199 12.9138ZM14.3956 8.19018C13.702 7.75332 12.8801 7.5 12 7.5C9.51472 7.5 7.5 9.51472 7.5 12C7.5 12.8801 7.75332 13.702 8.19018 14.3956L5.65003 16.9358C4.48386 15.8793 3.60174 14.6655 2.98463 13.645C2.62146 13.0444 2.35559 12.5199 2.18184 12.1489C2.14799 12.0766 2.11769 12.0103 2.09089 11.9504C2.19102 11.7404 2.33667 11.4501 2.52871 11.105C2.94567 10.3558 3.57481 9.35995 4.42285 8.36856C6.12793 6.37527 8.62503 4.5 12.0001 4.5C13.8295 4.5 15.395 5.04849 16.7186 5.8672L14.3956 8.19018Z" fill="black"/>
<path d="M0.074198 11.5593L-0.0739746 11.9233L0.0645038 12.2902L1.00008 11.9371C0.0738748 11.5601 0.074198 11.5593 0.074198 11.5593Z" fill="black"/>
<path d="M20.6071 7.99677C21.0547 7.6733 21.6798 7.77395 22.0033 8.22159C22.6476 9.11312 23.1239 9.93792 23.4403 10.542C23.5987 10.8445 23.7178 11.0931 23.7984 11.2688C23.8387 11.3567 23.8694 11.4264 23.8907 11.4757C23.9013 11.5004 23.9096 11.5199 23.9155 11.5341L23.9227 11.5512L23.9249 11.5567L23.9257 11.5586L23.9262 11.5598L23.0001 11.9371L23.9354 12.291L23.935 12.292L23.934 12.2947L23.9311 12.3023L23.9216 12.3266C23.9136 12.3469 23.9024 12.3751 23.8879 12.4107C23.8589 12.482 23.8165 12.583 23.7606 12.7095C23.6488 12.9623 23.4821 13.318 23.2578 13.7424C22.8103 14.5889 22.1269 15.7209 21.1822 16.8577C19.2986 19.1243 16.2931 21.5 12.0001 21.5C11.1273 21.5 10.3032 21.4013 9.5276 21.2228C8.98937 21.099 8.65343 20.5623 8.77726 20.0241C8.90108 19.4859 9.43778 19.1499 9.97601 19.2737C10.6058 19.4186 11.2795 19.5 12.0001 19.5C15.4752 19.5 17.9697 17.5942 19.644 15.5794C20.4784 14.5754 21.0884 13.5667 21.4896 12.8077C21.6747 12.4576 21.814 12.1632 21.9093 11.9504C21.8469 11.8195 21.7667 11.6573 21.6686 11.4699C21.3866 10.9316 20.9593 10.1915 20.3823 9.393C20.0588 8.94536 20.1594 8.32025 20.6071 7.99677Z" fill="black"/>
<path d="M23.9354 12.291C23.9354 12.291 23.9357 12.2902 23.0001 11.9371C23.9263 11.5601 23.9262 11.5598 23.9262 11.5598L24.0741 11.9233L23.9354 12.291Z" fill="black"/>
</g>
<defs>
<clipPath id="clip0_1383_124889">
<rect width="24" height="24" fill="white"/>
</clipPath>
</defs>
</svg>
