<svg width="24" height="24" viewBox="0 0 24 24" fill="none" xmlns="http://www.w3.org/2000/svg">
<path fill-rule="evenodd" clip-rule="evenodd" d="M2.73199 5.32873C1.5855 4.03892 2.50112 2 4.22681 2H19.7731C21.4988 2 22.4144 4.03893 21.2679 5.32873L15 12.3802V21C15 21.3466 14.8205 21.6684 14.5257 21.8507C14.2309 22.0329 13.8627 22.0494 13.5528 21.8944L9.55275 19.8944C9.21397 19.725 8.99997 19.3788 8.99997 19V12.3802L2.73199 5.32873ZM19.7731 4H4.22681L10.7474 11.3356C10.9101 11.5187 11 11.7551 11 12V18.382L13 19.382V12C13 11.7551 13.0898 11.5187 13.2526 11.3356L19.7731 4Z" fill="black"/>
</svg>
