<svg width="24" height="24" viewBox="0 0 24 24" fill="none" xmlns="http://www.w3.org/2000/svg">
<path fill-rule="evenodd" clip-rule="evenodd" d="M12 8C9.79086 8 8 9.79086 8 12C8 14.2091 9.79086 16 12 16C14.2091 16 16 14.2091 16 12C16 9.79086 14.2091 8 12 8ZM10 12C10 10.8954 10.8954 10 12 10C13.1046 10 14 10.8954 14 12C14 13.1046 13.1046 14 12 14C10.8954 14 10 13.1046 10 12Z" fill="black"/>
<path fill-rule="evenodd" clip-rule="evenodd" d="M11.2865 0.5C9.88559 0.5 8.64585 1.46745 8.37147 2.85605L8.2924 3.25622C8.10465 4.20638 7.0617 4.83059 6.04486 4.48813L5.648 4.35447C4.32221 3.90796 2.83848 4.42968 2.11812 5.63933L1.40468 6.83735C0.677486 8.05846 0.954105 9.60487 2.03902 10.5142L2.35689 10.7806C3.12914 11.4279 3.12914 12.5721 2.35689 13.2194L2.03902 13.4858C0.954105 14.3951 0.677485 15.9415 1.40468 17.1626L2.11809 18.3606C2.83847 19.5703 4.32225 20.092 5.64806 19.6455L6.04481 19.5118C7.06167 19.1693 8.10465 19.7935 8.2924 20.7437L8.37148 21.1439C8.64585 22.5325 9.88559 23.5 11.2865 23.5H12.7134C14.1143 23.5 15.3541 22.5325 15.6284 21.1438L15.7074 20.7438C15.8952 19.7936 16.9381 19.1693 17.955 19.5118L18.3519 19.6455C19.6777 20.092 21.1615 19.5703 21.8818 18.3606L22.5952 17.1627C23.3224 15.9416 23.0458 14.3951 21.9608 13.4858L21.643 13.2194C20.8707 12.5722 20.8707 11.4278 21.643 10.7806L21.9608 10.5142C23.0458 9.60489 23.3224 8.05845 22.5952 6.83732L21.8818 5.63932C21.1614 4.42968 19.6777 3.90795 18.352 4.35444L17.955 4.48814C16.9381 4.83059 15.8952 4.20634 15.7074 3.25617L15.6284 2.85616C15.3541 1.46751 14.1143 0.5 12.7134 0.5H11.2865ZM10.3335 3.24375C10.4146 2.83334 10.798 2.5 11.2865 2.5H12.7134C13.2018 2.5 13.5853 2.83336 13.6663 3.24378L13.7454 3.64379C14.1789 5.83811 16.4906 7.09167 18.5933 6.38353L18.9903 6.24984C19.4493 6.09527 19.9391 6.28595 20.1634 6.66264L20.8769 7.86064C21.0944 8.22587 21.0206 8.69271 20.6762 8.98135L20.3583 9.24773C18.6323 10.6943 18.6323 13.3057 20.3583 14.7523L20.6762 15.0186C21.0206 15.3073 21.0944 15.7741 20.8769 16.1394L20.1635 17.3373C19.9391 17.714 19.4493 17.9047 18.9903 17.7501L18.5934 17.6164C16.4907 16.9082 14.1789 18.1618 13.7454 20.3562L13.6663 20.7562C13.5853 21.1666 13.2018 21.5 12.7134 21.5H11.2865C10.7981 21.5 10.4146 21.1667 10.3335 20.7562L10.2545 20.356C9.82089 18.1617 7.50906 16.9082 5.40641 17.6165L5.00966 17.7501C4.55068 17.9047 4.0608 17.714 3.83647 17.3373L3.12305 16.1393C2.90555 15.7741 2.97935 15.3073 3.32373 15.0186L3.6416 14.7522C5.36757 13.3056 5.36757 10.6944 3.6416 9.24779L3.32373 8.98137C2.97935 8.69273 2.90555 8.2259 3.12305 7.86067L3.83649 6.66266C4.06082 6.28596 4.55068 6.09528 5.00965 6.24986L5.40651 6.38352C7.50914 7.09166 9.82088 5.83819 10.2545 3.64392L10.3335 3.24375Z" fill="black"/>
</svg>
