<svg width="24" height="24" viewBox="0 0 24 24" fill="none" xmlns="http://www.w3.org/2000/svg">
<path d="M14.268 9.82149C14.2374 9.79455 14.2085 9.76577 14.1814 9.73533C14.1089 9.6539 14.052 9.56346 14.0108 9.4679C13.9585 9.34711 13.9294 9.21397 13.929 9.07408L13.929 9.0711V3.0711C13.929 2.51881 14.3767 2.0711 14.929 2.0711C15.4812 2.0711 15.929 2.51881 15.929 3.0711V6.65685L21.2929 1.29289C21.6834 0.902369 22.3166 0.902369 22.7071 1.29289C23.0977 1.68342 23.0977 2.31658 22.7071 2.70711L17.3431 8.0711H20.929C21.4812 8.0711 21.929 8.51881 21.929 9.0711C21.929 9.62338 21.4812 10.0711 20.929 10.0711H14.929C14.7813 10.0711 14.6411 10.0391 14.515 9.98165C14.427 9.94167 14.3436 9.88828 14.268 9.82149Z" fill="black"/>
<path fill-rule="evenodd" clip-rule="evenodd" d="M2.01179 5.60235C1.833 3.50028 3.61562 2.00005 5.51149 2.00005H7.88582C9.01903 2.00005 10.0409 2.68187 10.476 3.72824L11.6458 6.54157C12.0463 7.50462 11.8793 8.61032 11.2125 9.41224L9.96008 10.9182C10.7682 12.1459 11.7861 13.2527 12.9454 14.1691L14.5826 12.8019C15.3859 12.1311 16.4957 11.9632 17.4615 12.3665L20.2637 13.5365C21.308 13.9725 21.988 14.9934 21.988 16.1251C21.988 16.5155 21.991 16.9061 21.9939 17.301L21.9939 17.3025C21.9969 17.6956 21.9999 18.0931 21.9999 18.4913C21.9999 20.387 20.4997 22.17 18.3974 21.9905C9.8576 21.2614 2.73993 14.1629 2.01179 5.60235ZM5.51149 4.00005C4.56794 4.00005 3.94275 4.70571 4.0046 5.43285C4.65004 13.0211 10.9964 19.3513 18.5675 19.9977C19.2943 20.0598 19.9999 19.435 19.9999 18.4913C19.9999 18.1013 19.997 17.7109 19.994 17.316L19.994 17.3135C19.991 16.9209 19.988 16.5232 19.988 16.1251C19.988 15.8002 19.7928 15.5072 19.4931 15.3821L16.6909 14.2121C16.4137 14.0963 16.0951 14.1445 15.8645 14.337L13.0325 16.702L12.405 16.2604C10.5706 14.9694 8.99858 13.2705 7.86729 11.3384L7.51284 10.7331L9.67471 8.13344C9.86613 7.90326 9.91405 7.58588 9.79911 7.30944L8.62931 4.49611C8.50443 4.19576 8.21109 4.00005 7.88582 4.00005H5.51149Z" fill="black"/>
</svg>
