<svg width="24" height="24" viewBox="0 0 24 24" fill="none" xmlns="http://www.w3.org/2000/svg">
<path d="M2.06095 10.8901C2.61379 5.88912 6.85202 2 12 2C14.2365 2 16.0402 2.88495 17.581 4.0323C18.4275 4.66267 19.2351 5.40719 20 6.14376V3C20 2.44771 20.4477 2 21 2C21.5523 2 22 2.44771 22 3V8.5C22 8.6503 21.9668 8.79285 21.9074 8.92074C21.8786 8.98289 21.843 9.04275 21.8006 9.09924C21.7678 9.14307 21.7314 9.18412 21.6919 9.22197C21.6071 9.30337 21.5112 9.36702 21.4091 9.41276C21.2842 9.46882 21.1458 9.5 21 9.5H15.5C14.9477 9.5 14.5 9.05228 14.5 8.5C14.5 7.94772 14.9477 7.5 15.5 7.5H18.5243C17.8281 6.82979 17.1371 6.19538 16.3865 5.6364C15.054 4.64418 13.662 4 12 4C7.88281 4 4.4909 7.11098 4.04884 11.1099C3.98816 11.6588 3.49396 12.0546 2.94502 11.9939C2.39608 11.9333 2.00027 11.4391 2.06095 10.8901Z" fill="black"/>
<path d="M21.9939 13.1099C21.441 18.1109 17.2028 22 12.0548 22C9.81834 22 8.0146 21.115 6.47383 19.9677C5.62731 19.3373 4.8197 18.5928 4.05481 17.8562V21C4.05481 21.5523 3.60709 22 3.05481 22C2.50253 22 2.05481 21.5523 2.05481 21V15.5C2.05481 15.3497 2.08797 15.2071 2.14736 15.0793C2.17619 15.0171 2.21178 14.9572 2.25416 14.9008C2.28703 14.8569 2.3234 14.8159 2.36288 14.778C2.44767 14.6966 2.54356 14.633 2.64571 14.5872C2.77059 14.5312 2.90906 14.5 3.05481 14.5H8.55481C9.1071 14.5 9.55481 14.9477 9.55481 15.5C9.55481 16.0523 9.1071 16.5 8.55481 16.5H5.53052C6.22675 17.1702 6.91769 17.8046 7.66834 18.3636C9.0008 19.3558 10.3928 20 12.0548 20C16.172 20 19.5639 16.889 20.006 12.8901C20.0667 12.3412 20.5608 11.9454 21.1098 12.0061C21.6587 12.0667 22.0545 12.5609 21.9939 13.1099Z" fill="black"/>
</svg>
