<svg width="24" height="24" viewBox="0 0 24 24" fill="none" xmlns="http://www.w3.org/2000/svg">
<path d="M21.9939 10.8901C21.441 5.88912 17.2028 2 12.0548 2C9.81834 2 8.0146 2.88495 6.47383 4.0323C5.62731 4.66267 4.8197 5.40719 4.05481 6.14376V3C4.05481 2.44771 3.60709 2 3.05481 2C2.50253 2 2.05481 2.44771 2.05481 3V8.5C2.05481 8.6503 2.08797 8.79285 2.14736 8.92074C2.17619 8.98289 2.21178 9.04275 2.25416 9.09924C2.28703 9.14307 2.3234 9.18412 2.36288 9.22197C2.44767 9.30337 2.54356 9.36702 2.64571 9.41276C2.77059 9.46882 2.90906 9.5 3.05481 9.5H8.55481C9.10709 9.5 9.55481 9.05228 9.55481 8.5C9.55481 7.94772 9.10709 7.5 8.55481 7.5H5.53052C6.22675 6.82979 6.91769 6.19538 7.66834 5.6364C9.0008 4.64418 10.3928 4 12.0548 4C16.172 4 19.5639 7.11098 20.006 11.1099C20.0666 11.6588 20.5608 12.0546 21.1098 11.9939C21.6587 11.9333 22.0545 11.4391 21.9939 10.8901Z" fill="black"/>
<path d="M2.06095 13.1099C2.61378 18.1109 6.85202 22 12 22C14.2365 22 16.0402 21.115 17.581 19.9677C18.4275 19.3373 19.2351 18.5928 20 17.8562V21C20 21.5523 20.4477 22 21 22C21.5523 22 22 21.5523 22 21V15.5C22 15.3497 21.9668 15.2071 21.9074 15.0793C21.8786 15.0171 21.843 14.9572 21.8006 14.9008C21.7678 14.8569 21.7314 14.8159 21.6919 14.778C21.6071 14.6966 21.5112 14.633 21.4091 14.5872C21.2842 14.5312 21.1458 14.5 21 14.5H15.5C14.9477 14.5 14.5 14.9477 14.5 15.5C14.5 16.0523 14.9477 16.5 15.5 16.5H18.5243C17.8281 17.1702 17.1371 17.8046 16.3865 18.3636C15.054 19.3558 13.662 20 12 20C7.88281 20 4.4909 16.889 4.04884 12.8901C3.98816 12.3412 3.49396 11.9454 2.94502 12.0061C2.39608 12.0667 2.00027 12.5609 2.06095 13.1099Z" fill="black"/>
</svg>
