<svg width="24" height="24" viewBox="0 0 24 24" fill="none" xmlns="http://www.w3.org/2000/svg">
<g clip-path="url(#clip0_734_37368)">
<path fill-rule="evenodd" clip-rule="evenodd" d="M2.12133 15.5356C0.168705 13.5829 0.168705 10.4171 2.12133 8.4645L8.4645 2.12133C10.4171 0.168705 13.5829 0.168705 15.5356 2.12133L21.8787 8.4645C23.8314 10.4171 23.8314 13.5829 21.8787 15.5356L15.5356 21.8787C13.5829 23.8314 10.4171 23.8314 8.4645 21.8787L2.12133 15.5356ZM3.53554 9.87872C2.36397 11.0503 2.36397 12.9498 3.53554 14.1214L9.87872 20.4645C11.0503 21.6361 12.9498 21.6361 14.1214 20.4645L20.4645 14.1214C21.6361 12.9498 21.6361 11.0503 20.4645 9.87872L14.1214 3.53554C12.9498 2.36397 11.0503 2.36397 9.87872 3.53554L3.53554 9.87872Z" fill="black"/>
</g>
<defs>
<clipPath id="clip0_734_37368">
<rect width="24" height="24" fill="white"/>
</clipPath>
</defs>
</svg>
