<svg width="24" height="24" viewBox="0 0 24 24" fill="none" xmlns="http://www.w3.org/2000/svg">
<path fill-rule="evenodd" clip-rule="evenodd" d="M11 4.63507L6.00618 9.17696C5.82209 9.34439 5.58219 9.43717 5.33334 9.43717H3L3.00001 14.6248H5.33334C5.58015 14.6248 5.81823 14.716 6.00179 14.881L11 19.3731V4.63507ZM12.1657 2.14424C12.8728 2.50021 13 3.27314 13 3.7446V20.2561C13 20.7286 12.8717 21.4998 12.1656 21.8554C11.416 22.2331 10.7175 21.8081 10.3623 21.4891L4.95001 16.6248H3.00001C1.89544 16.6248 1.00001 15.7293 1.00001 14.6248L1 9.43717C0.999998 8.3326 1.89543 7.43717 3 7.43717H4.94661L10.3623 2.51158C10.7163 2.19354 11.4151 1.76635 12.1657 2.14424Z" fill="black"/>
</svg>
