<svg width="24" height="24" viewBox="0 0 24 24" fill="none" xmlns="http://www.w3.org/2000/svg">
<path fill-rule="evenodd" clip-rule="evenodd" d="M13.75 24C13.1484 24 12.6127 23.6473 12.3657 23.1119L8.37734 15H3.98322C2.32771 15 1 13.6489 1 12V5C1 3.35111 2.32771 2 3.98322 2H18.6434C20.1225 2 21.3697 3.08717 21.5921 4.54507L22.9651 13.5451C23.2408 15.3523 21.854 17 20.0164 17H16.8825L16.8826 20.3715C16.8826 20.7189 16.8826 21.1126 16.8438 21.4828C16.8037 21.8647 16.7159 22.3011 16.4904 22.7076C15.9723 23.6414 14.9922 24 13.75 24ZM10.1721 14.1176L14.0429 21.9902C14.6349 21.9471 14.7218 21.776 14.7396 21.741L14.7416 21.7372C14.7826 21.6632 14.8281 21.5275 14.8547 21.2742C14.8815 21.0185 14.8825 20.7245 14.8825 20.3451V16C14.8825 15.4477 15.3303 15 15.8825 15H20.0164C20.6097 15 21.0819 14.4626 20.9879 13.8467L19.615 4.84669C19.5397 4.35328 19.122 4 18.6434 4H8V13H8.37734C9.1397 13 9.83576 13.4334 10.1721 14.1176ZM6 13V4H3.98322C3.44813 4 3 4.43976 3 5V12C3 12.5602 3.44813 13 3.98322 13H6Z" fill="black"/>
</svg>
