<svg width="24" height="24" viewBox="0 0 24 24" fill="none" xmlns="http://www.w3.org/2000/svg">
<path fill-rule="evenodd" clip-rule="evenodd" d="M14.4528 1.10842C14.8686 1.31958 15.0833 1.79014 14.9702 2.24259L13.2808 9.00006H20C20.388 9.00006 20.741 9.22452 20.9056 9.5759C21.0702 9.92729 21.0166 10.3422 20.7682 10.6402L10.7682 22.6402C10.4697 22.9985 9.96309 23.1028 9.54725 22.8917C9.13142 22.6805 8.91676 22.21 9.02987 21.7575L10.7192 15.0001H4.00001C3.61199 15.0001 3.259 14.7756 3.09442 14.4242C2.92984 14.0728 2.98339 13.658 3.23179 13.3599L13.2318 1.35987C13.5304 1.00159 14.0369 0.897268 14.4528 1.10842ZM6.13505 13.0001H12C12.3079 13.0001 12.5987 13.1419 12.7882 13.3846C12.9777 13.6274 13.0448 13.9439 12.9702 14.2426L12.0304 18.0015L17.865 11.0001H12C11.6921 11.0001 11.4013 10.8582 11.2118 10.6155C11.0223 10.3728 10.9552 10.0563 11.0299 9.75752L11.9696 5.9986L6.13505 13.0001Z" fill="black"/>
</svg>
