<svg width="24" height="24" viewBox="0 0 24 24" fill="none" xmlns="http://www.w3.org/2000/svg">
<g clip-path="url(#clip0_1076_36062)">
<path d="M23.3828 12.9239C23.7565 12.7691 24.0001 12.4045 24.0001 12V6C24.0001 5.44772 23.5524 5 23.0001 5H17.0001C16.5957 5 16.231 5.24364 16.0762 5.61732C15.9215 5.99099 16.007 6.42111 16.293 6.70711L18.2324 8.64649L13.5002 13.3787L9.56087 9.43935C8.97508 8.85356 8.02533 8.85356 7.43955 9.43935L0.646653 16.2322C0.256129 16.6228 0.256129 17.2559 0.646653 17.6465L1.35376 18.3536C1.74428 18.7441 2.37745 18.7441 2.76797 18.3536L8.50021 12.6213L12.4395 16.5607C13.0253 17.1465 13.9751 17.1465 14.5609 16.5607L20.3537 10.7678L22.293 12.7071C22.579 12.9931 23.0091 13.0787 23.3828 12.9239Z" fill="black"/>
</g>
<defs>
<clipPath id="clip0_1076_36062">
<rect width="24" height="24" fill="white"/>
</clipPath>
</defs>
</svg>
