<svg width="24" height="24" viewBox="0 0 24 24" fill="none" xmlns="http://www.w3.org/2000/svg">
<g clip-path="url(#clip0_1076_36063)">
<path d="M12.4395 7.4393L8.50021 11.3786L2.76797 5.64641C2.37745 5.25588 1.74428 5.25588 1.35376 5.64641L0.646653 6.35352C0.256129 6.74404 0.256129 7.3772 0.646653 7.76773L7.43955 14.5606C8.02533 15.1464 8.97508 15.1464 9.56087 14.5606L13.5002 10.6213L18.2324 15.3535L16.293 17.2929C16.007 17.5789 15.9215 18.009 16.0762 18.3827C16.231 18.7563 16.5957 19 17.0001 19H23.0001C23.5524 19 24.0001 18.5523 24.0001 18V12C24.0001 11.5955 23.7565 11.2309 23.3828 11.0761C23.0091 10.9213 22.579 11.0069 22.293 11.2929L20.3537 13.2322L14.5609 7.4393C13.9751 6.85352 13.0253 6.85352 12.4395 7.4393Z" fill="black"/>
</g>
<defs>
<clipPath id="clip0_1076_36063">
<rect width="24" height="24" fill="white"/>
</clipPath>
</defs>
</svg>
