<svg width="24" height="24" viewBox="0 0 24 24" fill="none" xmlns="http://www.w3.org/2000/svg">
<path d="M23.2282 8.01785C23.6189 7.62741 23.619 6.99424 23.2285 6.60363L22.5216 5.89638C22.1312 5.50577 21.498 5.50563 21.1074 5.89607L10.0865 16.9122C9.69588 17.3027 9.69574 17.9359 10.0862 18.3265L10.7931 19.0337C11.1836 19.4243 11.8167 19.4245 12.2074 19.034L23.2282 8.01785Z" fill="black"/>
<path d="M17.2288 8.01777C17.6193 7.62724 17.6193 6.99408 17.2288 6.60356L16.5217 5.89645C16.1311 5.50592 15.498 5.50592 15.1074 5.89645L5.54566 15.4582L2.76797 12.6805C2.37745 12.29 1.74428 12.29 1.35376 12.6805L0.646653 13.3876C0.256129 13.7782 0.256129 14.4113 0.646653 14.8019L4.83855 18.9938C5.22908 19.3843 5.86224 19.3843 6.25277 18.9938L17.2288 8.01777Z" fill="black"/>
</svg>
