<svg width="24" height="24" viewBox="0 0 24 24" fill="none" xmlns="http://www.w3.org/2000/svg">
<path fill-rule="evenodd" clip-rule="evenodd" d="M6.30983 3.54424C7.06765 2.56989 8.23287 2 9.46724 2H21C21.8362 2 22.6106 2.37473 23.1616 2.99465C23.7092 3.61073 24 4.42358 24 5.25V18.75C24 19.5764 23.7092 20.3893 23.1616 21.0054C22.6106 21.6253 21.8362 22 21 22H9.46724C8.23287 22 7.06765 21.4301 6.30983 20.4558L0.688142 13.2279C0.126415 12.5057 0.126413 11.4943 0.688141 10.7721L6.30983 3.54424ZM10.25 7.04289C10.6405 6.65237 11.2737 6.65237 11.6642 7.04289L14.4926 9.87132L17.3211 7.04289C17.7116 6.65237 18.3448 6.65237 18.7353 7.04289L19.4424 7.75C19.8329 8.14052 19.8329 8.77369 19.4424 9.16421L16.614 11.9926L19.4424 14.8211C19.8329 15.2116 19.8329 15.8448 19.4424 16.2353L18.7353 16.9424C18.3448 17.3329 17.7116 17.3329 17.3211 16.9424L14.4926 14.114L11.6642 16.9424C11.2737 17.3329 10.6405 17.3329 10.25 16.9424L9.54289 16.2353C9.15237 15.8448 9.15237 15.2116 9.54289 14.8211L12.3713 11.9926L9.54289 9.16421C9.15237 8.77369 9.15237 8.14052 9.54289 7.75L10.25 7.04289Z" fill="black"/>
</svg>
