<svg width="24" height="24" viewBox="0 0 24 24" fill="none" xmlns="http://www.w3.org/2000/svg">
<path d="M20.2929 9.70711C20.5789 9.9931 21.009 10.0787 21.3827 9.92388C21.7564 9.7691 22 9.40446 22 9V3C22 2.44772 21.5523 2 21 2H15C14.5955 2 14.2309 2.24364 14.0761 2.61732C13.9213 2.99099 14.0069 3.42111 14.2929 3.70711L16.2322 5.64645L9.58574 12.2929C9.19522 12.6835 9.19522 13.3166 9.58574 13.7071L10.2928 14.4143C10.6834 14.8048 11.3165 14.8048 11.7071 14.4143L18.3536 7.76777L20.2929 9.70711Z" fill="black"/>
<path d="M4.5 8.00009C4.5 7.72395 4.72386 7.50009 5 7.50009H10.0625C10.6148 7.50009 11.0625 7.05237 11.0625 6.50009V5.50009C11.0625 4.9478 10.6148 4.50009 10.0625 4.50009H5C3.067 4.50009 1.5 6.06709 1.5 8.00009V19.0001C1.5 20.9331 3.067 22.5001 5 22.5001H16C17.933 22.5001 19.5 20.9331 19.5 19.0001V13.9376C19.5 13.3853 19.0523 12.9376 18.5 12.9376H17.5C16.9477 12.9376 16.5 13.3853 16.5 13.9376V19.0001C16.5 19.2762 16.2761 19.5001 16 19.5001H5C4.72386 19.5001 4.5 19.2762 4.5 19.0001V8.00009Z" fill="black"/>
</svg>
