<svg width="24" height="24" viewBox="0 0 24 24" fill="none" xmlns="http://www.w3.org/2000/svg">
<path fill-rule="evenodd" clip-rule="evenodd" d="M12.7848 0.449951C13.8239 0.449951 14.7167 1.16543 14.9122 2.15492L14.9991 2.59492C15.3408 4.32439 17.1859 5.35719 18.9016 4.77937L19.3383 4.6323C20.3199 4.30172 21.4054 4.69354 21.9249 5.56602L22.7097 6.88383C23.2293 7.75633 23.0365 8.86363 22.2504 9.5225L21.9008 9.81552C20.5267 10.9671 20.5267 13.0328 21.9008 14.1844L22.2504 14.4774C23.0365 15.1363 23.2293 16.2436 22.7097 17.1161L21.925 18.4338C21.4054 19.3063 20.3199 19.6982 19.3382 19.3675L18.9017 19.2205C17.1859 18.6426 15.3408 19.6754 14.9991 21.4049L14.9122 21.845C14.7167 22.8345 13.8239 23.5499 12.7848 23.5499H11.2152C10.1761 23.5499 9.28331 22.8345 9.08781 21.845L9.00082 21.4048C8.65909 19.6753 6.81395 18.6426 5.09822 19.2205L4.66179 19.3675C3.68016 19.6981 2.59465 19.3063 2.07505 18.4338L1.2903 17.116C0.770719 16.2435 0.963446 15.1363 1.74956 14.4774L2.09922 14.1843C3.47324 13.0327 3.47324 10.9672 2.09922 9.81557L1.74956 9.52251C0.963446 8.86363 0.77072 7.75635 1.2903 6.88387L2.07508 5.56604C2.59466 4.69356 3.68014 4.30173 4.66176 4.63233L5.09831 4.77936C6.81401 5.35719 8.65909 4.32446 9.00082 2.59503L9.0878 2.15484C9.28331 1.16539 10.176 0.449951 11.2152 0.449951H12.7848ZM12 15.2999C13.8225 15.2999 15.3 13.8225 15.3 12C15.3 10.1774 13.8225 8.69995 12 8.69995C10.1774 8.69995 8.69997 10.1774 8.69997 12C8.69997 13.8225 10.1774 15.2999 12 15.2999Z" fill="black"/>
</svg>
