<svg width="24" height="24" viewBox="0 0 24 24" fill="none" xmlns="http://www.w3.org/2000/svg">
<path d="M4.23563 1.51095C3.74475 1.39246 3.40768 1.99347 3.76475 2.35054L10.482 9.06777C10.6472 9.02357 10.8209 9 11.0001 9C12.1047 9 13.0001 9.89543 13.0001 11C13.0001 12.1046 12.1047 13 11.0001 13C9.89555 13 9.00012 12.1046 9.00012 11C9.00012 10.8209 9.02367 10.6473 9.06784 10.4821L2.35067 3.76489C1.99359 3.40781 1.39258 3.74488 1.51107 4.23576L4.52806 16.7347C4.61943 17.1132 4.9222 17.4043 5.30403 17.4806L11.0694 18.6337C10.9283 18.9928 11.0028 19.417 11.293 19.7072L14.293 22.7072C14.6835 23.0977 15.3167 23.0977 15.7072 22.7072L22.7072 15.7072C23.0978 15.3166 23.0978 14.6835 22.7072 14.2929L19.7072 11.2929C19.417 11.0027 18.9928 10.9282 18.6338 11.0693L17.4807 5.30395C17.4044 4.92213 17.1133 4.61935 16.7348 4.52799L4.23563 1.51095Z" fill="black"/>
</svg>
