<svg width="24" height="24" viewBox="0 0 24 24" fill="none" xmlns="http://www.w3.org/2000/svg">
<path d="M23.4142 1.29285C23.8047 1.68337 23.8047 2.31654 23.4142 2.70706L20.5858 5.53548L23.4142 8.36391C23.8048 8.75444 23.8048 9.3876 23.4142 9.77813L22.7071 10.4852C22.3166 10.8758 21.6834 10.8758 21.2929 10.4852L18.4645 7.6568L15.636 10.4852C15.2455 10.8758 14.6123 10.8758 14.2218 10.4852L13.5147 9.77813C13.1242 9.3876 13.1242 8.75444 13.5147 8.36391L16.3432 5.53548L13.5147 2.70706C13.1242 2.31654 13.1242 1.68337 13.5147 1.29285L14.2218 0.58574C14.6124 0.195216 15.2455 0.195216 15.6361 0.58574L18.4645 3.41416L21.2929 0.58574C21.6834 0.195216 22.3166 0.195216 22.7071 0.58574L23.4142 1.29285Z" fill="black"/>
<path d="M4.54522 1.99997C3.11531 1.99997 1.905 3.11233 2.00589 4.54163C2.65247 13.7017 10.3021 21.3452 19.4226 21.994C20.8489 22.0955 21.9589 20.8827 21.9589 19.4498V17.4866H22V16.4238C22 15.6883 21.5587 15.0249 20.8811 14.742L17.8092 13.4594C17.0609 13.1469 16.1966 13.3687 15.6902 14.003L14.8588 15.0444C14.5517 15.4291 14.008 15.5364 13.5964 15.2666C11.6464 13.9888 10.0429 12.2241 8.95794 10.1447C8.74683 9.74016 8.86788 9.24795 9.22394 8.96251L10.0218 8.32289C10.6548 7.81541 10.8761 6.94929 10.5643 6.19943L9.28438 3.12117C9.00207 2.44223 8.34006 1.99997 7.60606 1.99997H4.54522Z" fill="black"/>
<path d="M21.0002 16.4237C21.0001 16.0908 20.8005 15.7921 20.4962 15.6649L17.424 14.3817C17.1304 14.2592 16.7963 14.3199 16.5646 14.5282L16.4718 14.6268L15.6407 15.6688C15.0367 16.4254 13.9239 16.6774 13.048 16.1034C11.0864 14.8179 9.45202 13.0731 8.29597 11.0213L8.07136 10.6073C7.62347 9.74884 7.8974 8.74467 8.5987 8.18246L9.39656 7.54281L9.49422 7.45003C9.67304 7.25057 9.74386 6.97459 9.6827 6.71272L9.6407 6.58284L8.3614 3.5047C8.23383 3.19812 7.93538 2.99997 7.60651 2.99982H4.54497C3.59898 2.99996 2.9494 3.71264 3.00296 4.4715C3.61468 13.1354 10.8702 20.3833 19.4933 20.997L19.6339 20.9989C20.3315 20.9685 20.959 20.344 20.9591 19.4501V16.4862H21.0002V16.4237ZM21.2929 0.58574C21.6834 0.195216 22.3166 0.195216 22.7071 0.58574L23.4142 1.29285C23.8047 1.68337 23.8047 2.31654 23.4142 2.70706L20.5858 5.53548L23.4142 8.36391C23.8048 8.75444 23.8048 9.3876 23.4142 9.77813L22.7071 10.4852L22.631 10.5536C22.2644 10.8525 21.7359 10.8525 21.3693 10.5536L21.2929 10.4852L18.4645 7.6568L15.636 10.4852L15.5607 10.5536C15.194 10.8529 14.6647 10.8528 14.298 10.5536L14.2218 10.4852L13.5147 9.77813C13.1486 9.41206 13.1262 8.83305 13.4464 8.44027L13.5147 8.36391L16.3432 5.53548L13.5147 2.70706C13.1488 2.34095 13.1261 1.76168 13.4464 1.36895L13.5147 1.29285L14.2218 0.58574C14.6124 0.195216 15.2455 0.195216 15.6361 0.58574L18.4645 3.41416L21.2929 0.58574ZM18.465 4.82795L14.9288 1.29278L14.2218 1.99981L17.7579 5.53498L14.2218 9.07113L14.9288 9.77817L18.465 6.243L22.0002 9.77817L22.7072 9.07113L19.172 5.53498L22.7072 1.99981L22.0002 1.29278L18.465 4.82795ZM22 17.4866H21.9589V19.4498L21.9465 19.7157C21.8193 21.0291 20.7596 22.089 19.4226 21.994C10.4445 21.3553 2.89149 13.9387 2.04104 4.96955L2.00589 4.54163C1.91129 3.20154 2.96934 2.1398 4.28032 2.01251L4.54522 1.99997H7.60606L7.74323 2.00469C8.37655 2.05249 8.94023 2.42929 9.22761 2.99689L9.28438 3.12117L10.5643 6.19943C10.8761 6.94929 10.6548 7.81541 10.0218 8.32289L9.22394 8.96251C8.89033 9.23018 8.76256 9.67981 8.92195 10.0682L8.95794 10.1447C10.0429 12.2241 11.6464 13.9888 13.5964 15.2666C14.008 15.5364 14.5517 15.4291 14.8588 15.0444L15.6902 14.003C16.1966 13.3687 17.0609 13.1469 17.8092 13.4594L20.8811 14.742C21.5587 15.0249 22 15.6883 22 16.4238V17.4866Z" fill="black"/>
</svg>
