<svg width="24" height="24" viewBox="0 0 24 24" fill="none" xmlns="http://www.w3.org/2000/svg">
<path d="M22.3535 3.76773C22.744 3.3772 22.744 2.74404 22.3535 2.35352L21.6464 1.64641C21.2559 1.25588 20.6227 1.25588 20.2322 1.64641L10.02 11.8586C9.62574 11.3161 9.27033 10.7435 8.95791 10.1447C8.7468 9.74016 8.86786 9.24795 9.22391 8.96251L10.0218 8.32289C10.6548 7.81542 10.8761 6.94929 10.5643 6.19943L9.28435 3.12117C9.00205 2.44223 8.34003 1.99997 7.60603 1.99997H4.54519C3.11528 1.99997 1.90497 3.11233 2.00586 4.54163C2.29273 8.60568 3.9581 12.3712 6.51884 15.3598L1.64641 20.2322C1.25588 20.6227 1.25588 21.2559 1.64641 21.6464L2.35352 22.3535C2.74404 22.744 3.37721 22.744 3.76773 22.3535L22.3535 3.76773Z" fill="black"/>
<path d="M9.82006 18.419L13.2248 15.0143C13.3472 15.1004 13.4711 15.1845 13.5963 15.2666C14.008 15.5364 14.5517 15.4291 14.8587 15.0444L15.6902 14.003C16.1966 13.3687 17.0609 13.1469 17.8092 13.4594L20.8811 14.742C21.5586 15.0249 22 15.6883 22 16.4238V19.5C22 20.9328 20.8489 22.0955 19.4225 21.994C15.895 21.7431 12.5875 20.4458 9.82006 18.419Z" fill="black"/>
<path d="M20.2322 1.64641C20.6227 1.25588 21.2559 1.25588 21.6464 1.64641L22.3535 2.35352C22.744 2.74404 22.744 3.3772 22.3535 3.76773L3.76773 22.3535L3.69141 22.4219C3.29863 22.7422 2.71961 22.7196 2.35352 22.3535L1.64641 21.6464C1.28032 21.2803 1.25785 20.7014 1.57812 20.3086L1.64641 20.2322L6.51884 15.3598C4.03834 12.4647 2.39803 8.84017 2.03711 4.92188L2.00586 4.54163C1.91126 3.20154 2.9693 2.13998 4.28027 2.0127L4.54519 1.99997H7.60603L7.74316 2.00488C8.37636 2.05269 8.93914 2.42965 9.22656 2.99707L9.28435 3.12117L10.5643 6.19943C10.8761 6.94929 10.6548 7.81542 10.0218 8.32289L9.22391 8.96251C8.86786 9.24795 8.7468 9.74016 8.95791 10.1447C9.27033 10.7435 9.62574 11.3161 10.02 11.8586L20.2322 1.64641ZM21 16.4238C21 16.0909 20.8003 15.7922 20.4961 15.665L17.4238 14.3818C17.1302 14.2593 16.7962 14.32 16.5645 14.5283L16.4717 14.627L15.6406 15.668C15.11 16.3327 14.1873 16.6075 13.377 16.2754L11.3789 18.2734C13.792 19.8143 16.5658 20.7878 19.4932 20.9961C20.291 21.0529 21 20.4037 21 19.5V16.4238ZM9.89941 13.3936L9.21094 12.4463C8.78797 11.8644 8.40657 11.25 8.07129 10.6074C7.62336 9.74899 7.89734 8.74485 8.59863 8.18262L9.39648 7.54297L9.49414 7.4502C9.67297 7.25076 9.74374 6.97474 9.68262 6.71289L9.64062 6.58301L8.36133 3.50488C8.23379 3.19824 7.93534 3.00017 7.60645 3H4.54492C3.59893 3.00013 2.94936 3.71281 3.00293 4.47168C3.25677 8.06646 4.65475 11.4249 6.83203 14.1689L7.27832 14.709L7.88086 15.4121L2.35352 20.9395L3.06055 21.6465L21.6465 3.06055L20.9395 2.35352L9.89941 13.3936ZM22 19.5L21.9863 19.7656C21.8545 21.0733 20.7594 22.089 19.4225 21.994C15.895 21.7431 12.5875 20.4458 9.82006 18.419L13.2248 15.0143C13.3472 15.1004 13.4711 15.1845 13.5963 15.2666C14.008 15.5364 14.5517 15.4291 14.8587 15.0444L15.6902 14.003C16.1966 13.3687 17.0609 13.1469 17.8092 13.4594L20.8811 14.742C21.5586 15.0249 22 15.6883 22 16.4238V19.5Z" fill="black"/>
</svg>
