<svg width="24" height="24" viewBox="0 0 24 24" fill="none" xmlns="http://www.w3.org/2000/svg">
<path d="M22.279 9.84783C22.3917 10.3885 21.991 10.8844 21.4421 10.9451L20.4481 11.0549C19.8992 11.1156 19.4117 10.7169 19.2782 10.1809C18.4657 6.9183 15.5144 4.5 12 4.5C10.4816 4.5 9.19253 5.08399 7.91215 6.03743C7.8242 6.10292 7.73719 6.16939 7.65098 6.23679L9.20708 7.79289C9.49308 8.07889 9.57864 8.50901 9.42385 8.88268C9.26907 9.25636 8.90444 9.5 8.49998 9.5H2.99998C2.44769 9.5 1.99998 9.05228 1.99998 8.5V3C1.99998 2.59554 2.24362 2.2309 2.61729 2.07612C2.99097 1.92134 3.42108 2.00689 3.70708 2.29289L5.51727 4.10308C5.71631 3.94027 5.91745 3.78239 6.12039 3.63127C7.71323 2.44515 9.61991 1.5 12 1.5C17.0618 1.5 21.2854 5.08059 22.279 9.84783Z" fill="black"/>
<path d="M1.72097 14.1522C1.60829 13.6115 2.00894 13.1156 2.55789 13.0549L3.55183 12.9451C4.10077 12.8844 4.58828 13.2831 4.72173 13.8191C5.5342 17.0817 8.48551 19.5 11.9999 19.5C13.5184 19.5 14.8074 18.916 16.0878 17.9626C16.1758 17.8971 16.2628 17.8306 16.349 17.7632L14.7929 16.2071C14.5069 15.9211 14.4213 15.491 14.5761 15.1173C14.7309 14.7436 15.0955 14.5 15.5 14.5H21C21.5523 14.5 22 14.9477 22 15.5V21C22 21.4044 21.7564 21.7691 21.3827 21.9239C21.009 22.0786 20.5789 21.9931 20.2929 21.7071L18.4827 19.8969C18.2837 20.0597 18.0825 20.2176 17.8796 20.3687C16.2867 21.5549 14.38 22.5 11.9999 22.5C6.93818 22.5 2.71452 18.9194 1.72097 14.1522Z" fill="black"/>
</svg>
