<svg width="24" height="24" viewBox="0 0 24 24" fill="none" xmlns="http://www.w3.org/2000/svg">
<path d="M1.72097 9.84783C1.60829 10.3885 2.00894 10.8844 2.55789 10.9451L3.55183 11.0549C4.10077 11.1156 4.58828 10.7169 4.72173 10.1809C5.5342 6.9183 8.48551 4.5 11.9999 4.5C13.5184 4.5 14.8074 5.08399 16.0878 6.03743C16.1758 6.10293 16.2628 6.1694 16.349 6.2368L14.7929 7.79292C14.5069 8.07892 14.4213 8.50904 14.5761 8.88271C14.7309 9.25639 15.0955 9.50003 15.5 9.50003H21C21.5523 9.50003 22 9.05231 22 8.50003V3.00003C22 2.59557 21.7563 2.23093 21.3827 2.07615C21.009 1.92137 20.5789 2.00692 20.2929 2.29292L18.4827 4.10309C18.2837 3.94028 18.0825 3.78239 17.8796 3.63127C16.2867 2.44515 14.38 1.5 11.9999 1.5C6.93818 1.5 2.71452 5.08059 1.72097 9.84783Z" fill="black"/>
<path d="M22.279 14.1522C22.3917 13.6115 21.991 13.1156 21.4421 13.0549L20.4481 12.9451C19.8992 12.8844 19.4117 13.2831 19.2782 13.8191C18.4657 17.0817 15.5144 19.5 12 19.5C10.4816 19.5 9.19253 18.916 7.91215 17.9626C7.82419 17.8971 7.73716 17.8306 7.65094 17.7632L9.20705 16.2071C9.49305 15.9211 9.57861 15.491 9.42383 15.1173C9.26904 14.7436 8.90441 14.5 8.49995 14.5H2.99995C2.44766 14.5 1.99995 14.9477 1.99995 15.5V21C1.99995 21.4044 2.24359 21.7691 2.61726 21.9239C2.99094 22.0786 3.42105 21.9931 3.70705 21.7071L5.51723 19.8969C5.71629 20.0597 5.91744 20.2176 6.12039 20.3687C7.71323 21.5549 9.61991 22.5 12 22.5C17.0618 22.5 21.2854 18.9194 22.279 14.1522Z" fill="black"/>
</svg>
