<svg width="24" height="24" viewBox="0 0 24 24" fill="none" xmlns="http://www.w3.org/2000/svg">
<path d="M16.6173 10.9239C16.2436 10.7691 16 10.4045 16 10V7.50003H7C6.33696 7.50003 5.70107 7.76342 5.23223 8.23226C4.76339 8.70111 4.5 9.33699 4.5 10C4.5 10.5523 4.05228 11 3.5 11H2.5C1.94772 11 1.5 10.5523 1.5 10C1.5 8.54134 2.07946 7.14239 3.11091 6.11094C4.14236 5.07949 5.54131 4.50003 7 4.50003H16V2.00003C16 1.59557 16.2436 1.23093 16.6173 1.07615C16.991 0.921369 17.4211 1.00692 17.7071 1.29292L21.7071 5.29292C22.0976 5.68345 22.0976 6.31661 21.7071 6.70714L17.7071 10.7071C17.4211 10.9931 16.991 11.0787 16.6173 10.9239Z" fill="black"/>
<path d="M7.38268 13.0761C7.75636 13.2309 8 13.5956 8 14V16.5H17C17.663 16.5 18.2989 16.2366 18.7678 15.7678C19.2366 15.299 19.5 14.6631 19.5 14C19.5 13.4477 19.9477 13 20.5 13H21.5C22.0523 13 22.5 13.4477 22.5 14C22.5 15.4587 21.9205 16.8577 20.8891 17.8891C19.8576 18.9206 18.4587 19.5 17 19.5H8V22C8 22.4045 7.75636 22.7691 7.38268 22.9239C7.00901 23.0787 6.57889 22.9931 6.29289 22.7071L2.29289 18.7071C1.90237 18.3166 1.90237 17.6834 2.29289 17.2929L6.29289 13.2929C6.57889 13.0069 7.00901 12.9214 7.38268 13.0761Z" fill="black"/>
</svg>
