<svg width="24" height="24" viewBox="0 0 24 24" fill="none" xmlns="http://www.w3.org/2000/svg">
<path d="M7.6212 6.20695C8.81151 5.25458 10.2566 4.5 12 4.5C16.1421 4.5 19.5 7.85786 19.5 12C19.5 16.1421 16.1421 19.5 12 19.5C8.74513 19.5 5.972 17.4254 4.93539 14.5256C4.74949 14.0055 4.22501 13.6568 3.68473 13.7713L2.70645 13.9787C2.16616 14.0932 1.81639 14.6262 1.98208 15.1531C3.32131 19.4112 7.29845 22.5 12 22.5C17.799 22.5 22.5 17.799 22.5 12C22.5 6.20101 17.799 1.5 12 1.5C9.21652 1.5 7.0484 2.76845 5.48882 4.07458L3.70713 2.29289C3.42114 2.00689 2.99102 1.92134 2.61734 2.07612C2.24367 2.2309 2.00003 2.59554 2.00003 3V8.5C2.00003 9.05228 2.44774 9.5 3.00003 9.5H8.50003C8.90449 9.5 9.26912 9.25636 9.42391 8.88268C9.57869 8.50901 9.49313 8.07889 9.20713 7.79289L7.6212 6.20695Z" fill="black"/>
</svg>
