<svg width="24" height="24" viewBox="0 0 24 24" fill="none" xmlns="http://www.w3.org/2000/svg">
<path d="M6.70706 4.58574C6.31654 4.19522 5.68337 4.19522 5.29285 4.58574L4.58574 5.29285C4.19522 5.68337 4.19522 6.31654 4.58574 6.70706L9.87865 12L4.58577 17.2928C4.19525 17.6834 4.19525 18.3165 4.58577 18.7071L5.29288 19.4142C5.68341 19.8047 6.31657 19.8047 6.70709 19.4142L12 14.1213L17.2928 19.4142C17.6834 19.8047 18.3165 19.8047 18.7071 19.4142L19.4142 18.7071C19.8047 18.3165 19.8047 17.6834 19.4142 17.2928L14.1213 12L19.4142 6.70706C19.8047 6.31654 19.8047 5.68337 19.4142 5.29285L18.7071 4.58574C18.3166 4.19522 17.6834 4.19522 17.2929 4.58574L12 9.87865L6.70706 4.58574Z" fill="black"/>
</svg>
