<svg width="24" height="24" viewBox="0 0 24 24" fill="none" xmlns="http://www.w3.org/2000/svg">
<path d="M14.9702 2.24259C15.0833 1.79014 14.8686 1.31958 14.4528 1.10842C14.0369 0.897268 13.5304 1.00159 13.2318 1.35987L3.23179 13.3599C2.98339 13.658 2.92984 14.0728 3.09442 14.4242C3.259 14.7756 3.61199 15.0001 4.00001 15.0001H10.7192L9.02987 21.7575C8.91676 22.21 9.13142 22.6805 9.54725 22.8917C9.96309 23.1028 10.4697 22.9985 10.7682 22.6402L20.7682 10.6402C21.0166 10.3422 21.0702 9.92729 20.9056 9.5759C20.741 9.22452 20.388 9.00006 20 9.00006H13.2808L14.9702 2.24259Z" fill="black"/>
</svg>
