<svg xmlns="http://www.w3.org/2000/svg" width="1200" height="630" viewBox="0 0 1200 630" fill="none">
  <defs>
    <linearGradient id="bg" x1="84" y1="48" x2="1110" y2="602" gradientUnits="userSpaceOnUse">
      <stop stop-color="#07101C"/>
      <stop offset="0.56" stop-color="#090F1B"/>
      <stop offset="1" stop-color="#110A12"/>
    </linearGradient>
    <radialGradient id="glow-cyan" cx="0" cy="0" r="1" gradientUnits="userSpaceOnUse" gradientTransform="translate(245 171) rotate(36.0151) scale(288.352 221.748)">
      <stop stop-color="#47EEFF" stop-opacity="0.28"/>
      <stop offset="1" stop-color="#47EEFF" stop-opacity="0"/>
    </radialGradient>
    <radialGradient id="glow-violet" cx="0" cy="0" r="1" gradientUnits="userSpaceOnUse" gradientTransform="translate(823 214) rotate(133.084) scale(419.606 288.561)">
      <stop stop-color="#9D61FF" stop-opacity="0.24"/>
      <stop offset="1" stop-color="#9D61FF" stop-opacity="0"/>
    </radialGradient>
    <radialGradient id="glow-amber" cx="0" cy="0" r="1" gradientUnits="userSpaceOnUse" gradientTransform="translate(1013 470) rotate(160.454) scale(262.144 208.576)">
      <stop stop-color="#FFB549" stop-opacity="0.22"/>
      <stop offset="1" stop-color="#FFB549" stop-opacity="0"/>
    </radialGradient>
    <linearGradient id="glass" x1="115" y1="110" x2="768" y2="566" gradientUnits="userSpaceOnUse">
      <stop stop-color="#132133" stop-opacity="0.9"/>
      <stop offset="1" stop-color="#0B1322" stop-opacity="0.62"/>
    </linearGradient>
    <linearGradient id="beam" x1="0" y1="0" x2="1" y2="0">
      <stop stop-color="#47EEFF" stop-opacity="0.2"/>
      <stop offset="0.5" stop-color="#9D61FF" stop-opacity="0.72"/>
      <stop offset="1" stop-color="#FFB549" stop-opacity="0.88"/>
    </linearGradient>
    <linearGradient id="shard-cyan" x1="0" y1="0" x2="1" y2="1">
      <stop stop-color="#47EEFF"/>
      <stop offset="1" stop-color="#9D61FF"/>
    </linearGradient>
    <linearGradient id="shard-amber" x1="0" y1="0" x2="1" y2="1">
      <stop stop-color="#FFD37A"/>
      <stop offset="1" stop-color="#FF6D41"/>
    </linearGradient>
    <linearGradient id="mark-orb" x1="0" y1="0" x2="1" y2="1">
      <stop stop-color="#0D2133"/>
      <stop offset="0.5" stop-color="#171C41"/>
      <stop offset="1" stop-color="#2E180A"/>
    </linearGradient>
    <linearGradient id="mark-facets" x1="0" y1="0" x2="1" y2="1">
      <stop stop-color="#47EEFF"/>
      <stop offset="0.48" stop-color="#9D61FF"/>
      <stop offset="1" stop-color="#FFB549"/>
    </linearGradient>
    <filter id="soft-blur" x="-20%" y="-20%" width="140%" height="140%">
      <feGaussianBlur stdDeviation="24"/>
    </filter>
    <filter id="panel-shadow" x="72" y="66" width="742" height="520" filterUnits="userSpaceOnUse">
      <feOffset dy="22"/>
      <feGaussianBlur stdDeviation="32"/>
      <feColorMatrix values="0 0 0 0 0.027451 0 0 0 0 0.0509804 0 0 0 0 0.101961 0 0 0 0.54 0"/>
    </filter>
    <filter id="beam-glow" x="566" y="176" width="516" height="290" filterUnits="userSpaceOnUse">
      <feGaussianBlur stdDeviation="18"/>
    </filter>
  </defs>

  <rect width="1200" height="630" fill="url(#bg)"/>
  <rect width="1200" height="630" fill="url(#glow-cyan)"/>
  <rect width="1200" height="630" fill="url(#glow-violet)"/>
  <rect width="1200" height="630" fill="url(#glow-amber)"/>

  <g opacity="0.35">
    <path d="M0 96C186 54 353 60 502 114C651 168 800 198 1200 150V0H0V96Z" fill="#0D1626"/>
    <path d="M0 630H1200V534C1030 491 883 472 740 482C570 494 420 548 261 574C161 591 74 602 0 608V630Z" fill="#0A1322"/>
  </g>

  <g opacity="0.5">
    <path d="M878 92L948 164L877 242L786 205L799 111L878 92Z" fill="url(#shard-cyan)"/>
    <path d="M1006 104L1094 171L1048 274L932 246L909 140L1006 104Z" fill="#121D33"/>
    <path d="M964 310L1024 363L987 442L904 430L862 357L905 294L964 310Z" fill="url(#shard-amber)" opacity="0.86"/>
  </g>

  <g filter="url(#panel-shadow)">
    <rect x="114" y="108" width="648" height="436" rx="36" fill="url(#glass)"/>
  </g>
  <rect x="114.75" y="108.75" width="646.5" height="434.5" rx="35.25" stroke="rgba(255,255,255,0.12)"/>

  <g>
    <rect x="150" y="145" width="86" height="86" rx="24" fill="#050914"/>
    <circle cx="193" cy="188" r="29.5625" fill="url(#mark-orb)"/>
    <path d="M193 158L211.812 168.75L215.844 188.906L203.75 208.391L182.25 211.078L168.812 196.297L170.156 174.875L193 158Z" fill="url(#mark-facets)" fill-opacity="0.9"/>
    <path d="M193 158L182.25 184.875L170.156 174.875L193 158Z" fill="#47EEFF" fill-opacity="0.96"/>
    <path d="M193 158L211.812 168.75L202.406 186.219L193 158Z" fill="#9D61FF" fill-opacity="0.92"/>
    <path d="M202.406 186.219L215.844 188.906L203.75 208.391L191.656 193.609L202.406 186.219Z" fill="#FFB549" fill-opacity="0.95"/>
    <path d="M182.25 184.875L191.656 193.609L182.25 211.078L168.812 196.297L182.25 184.875Z" fill="#4FD7FF" fill-opacity="0.74"/>
    <path d="M182.25 184.875L202.406 186.219L191.656 193.609L182.25 184.875Z" fill="#F5F7FF" fill-opacity="0.35"/>
  </g>

  <text x="151" y="282" fill="#C8F6FF" font-family="Inter, Arial, sans-serif" font-size="18" font-weight="700" letter-spacing="7.2">AGENT SKILLS, ORGANIZED</text>
  <text x="150" y="370" fill="#F6FBFF" font-family="Inter, Arial, sans-serif" font-size="82" font-weight="800">Skill Organizer</text>
  <text x="151" y="430" fill="#C9D7E5" font-family="Inter, Arial, sans-serif" font-size="31" font-weight="500">Organize skills. Keep tools compatible.</text>

  <g>
    <rect x="150" y="468" width="172" height="38" rx="19" fill="#0E1B2C" stroke="rgba(255,255,255,0.12)"/>
    <text x="174" y="492" fill="#E8F4FF" font-family="Inter, Arial, sans-serif" font-size="17" font-weight="700">Nested source tree</text>
    <rect x="338" y="468" width="222" height="38" rx="19" fill="#101626" stroke="rgba(255,255,255,0.12)"/>
    <text x="362" y="492" fill="#E8F4FF" font-family="Inter, Arial, sans-serif" font-size="17" font-weight="700">Tool-compatible target</text>
  </g>

  <g>
    <path d="M617 286H1016L1053 320L1016 354H617L654 320L617 286Z" fill="url(#beam)"/>
    <path d="M620 319H1048" stroke="#D5D2FF" stroke-opacity="0.3" stroke-width="1.4"/>
    <path d="M641 319H1033" stroke="#FFFFFF" stroke-opacity="0.16" stroke-width="6" stroke-linecap="round" filter="url(#beam-glow)"/>
  </g>

  <g>
    <path d="M739 252L765 269L760 299L731 312L704 293L708 263L739 252Z" fill="url(#shard-cyan)"/>
    <path d="M863 218L886 233L881 259L855 271L831 256L834 230L863 218Z" fill="url(#shard-amber)"/>
    <path d="M946 370L971 386L966 414L938 425L913 409L917 381L946 370Z" fill="url(#shard-cyan)" opacity="0.92"/>
    <path d="M809 386L830 399L826 423L802 433L781 420L785 396L809 386Z" fill="url(#shard-amber)" opacity="0.95"/>
  </g>

  <g opacity="0.22" filter="url(#soft-blur)">
    <circle cx="846" cy="321" r="76" fill="#8F6AFF"/>
    <circle cx="751" cy="323" r="58" fill="#47EEFF"/>
    <circle cx="974" cy="320" r="63" fill="#FFB549"/>
  </g>

  <g opacity="0.65">
    <path d="M1092 103L1136 134L1114 184L1058 171L1047 120L1092 103Z" fill="#0F1830"/>
    <path d="M1104 128L1125 142L1114 168L1089 161L1084 136L1104 128Z" fill="url(#mark-facets)"/>
    <path d="M1037 439L1074 466L1055 509L1007 498L998 453L1037 439Z" fill="#0F1830"/>
    <path d="M1047 459L1063 470L1056 491L1035 486L1030 465L1047 459Z" fill="url(#mark-facets)"/>
  </g>
</svg>
